<svg width="24" height="24" viewBox="0 0 24 24" fill="none" xmlns="http://www.w3.org/2000/svg">
  <path d="M4.5 16.5c-1.5 1.25-2.5 3.5-2.5 3.5s2.25-1 3.5-2.5M14 9a2 2 0 1 1-4 0 2 2 0 0 1 4 0z" stroke="url(#proj-grad)" stroke-width="2" stroke-linecap="round" stroke-linejoin="round"/>
  <path d="M9 15l-5 5M15 9l5-5" stroke="url(#proj-grad)" stroke-width="2" stroke-linecap="round" stroke-linejoin="round"/>
  <path d="M9 9h.01M15 15h.01" stroke="url(#proj-grad)" stroke-width="2" stroke-linecap="round" stroke-linejoin="round"/>
  <path d="M12 2A20.3 20.3 0 0 0 4.5 9.5c.3 2.1 1.7 3.9 3.5 5L12 18l4-3.5c1.8-1.1 3.2-2.9 3.5-5A20.3 20.3 0 0 0 12 2z" stroke="url(#proj-grad)" stroke-width="2" stroke-linecap="round" stroke-linejoin="round"/>
  <defs>
    <linearGradient id="proj-grad" x1="2" y1="2" x2="22" y2="22" gradientUnits="userSpaceOnUse">
      <stop offset="0%" stop-color="#f43f5e" />
      <stop offset="100%" stop-color="#fb923c" />
    </linearGradient>
  </defs>
</svg>
